<svg width="32" height="32" viewBox="0 0 32 32" fill="none" xmlns="http://www.w3.org/2000/svg">
<rect width="32" height="32" fill="#F5F5F5"/>
<path d="M-91 -1071C-91 -1072.1 -90.1046 -1073 -89 -1073H955C956.104 -1073 957 -1072.1 957 -1071V312C957 313.105 956.105 314 955 314H-89C-90.1045 314 -91 313.105 -91 312V-1071Z" fill="white"/>
<path d="M-89 -1072H955V-1074H-89V-1072ZM956 -1071V312H958V-1071H956ZM955 313H-89V315H955V313ZM-90 312V-1071H-92V312H-90ZM-89 313C-89.5523 313 -90 312.552 -90 312H-92C-92 313.657 -90.6568 315 -89 315V313ZM956 312C956 312.552 955.552 313 955 313V315C956.657 315 958 313.657 958 312H956ZM955 -1072C955.552 -1072 956 -1071.55 956 -1071H958C958 -1072.66 956.657 -1074 955 -1074V-1072ZM-89 -1074C-90.6568 -1074 -92 -1072.66 -92 -1071H-90C-90 -1071.55 -89.5523 -1072 -89 -1072V-1074Z" fill="black" fill-opacity="0.1"/>
<rect x="-9.5" y="-9.5" width="103" height="51" rx="4.5" stroke="#9747FF" stroke-dasharray="10 5"/>
<circle cx="16" cy="16" r="16" fill="black" fill-opacity="0.3"/>
<path d="M11 13.9999H21L20.1801 22.1989C20.0779 23.2213 19.2175 23.9999 18.19 23.9999H13.81C12.7825 23.9999 11.9221 23.2213 11.8199 22.1989L11 13.9999Z" fill="white"/>
<rect x="10" y="10.9999" width="12" height="2" rx="1" fill="white"/>
<path d="M14 11C14 9.89543 14.8954 9 16 9C17.1046 9 18 9.89543 18 11H14Z" fill="white"/>
</svg>
