<svg width="22" height="20" viewBox="0 0 22 20" fill="none" xmlns="http://www.w3.org/2000/svg">
<rect width="22" height="20" fill="#F5F5F5"/>
<path d="M-190 -566C-190 -567.105 -189.105 -568 -188 -568H856C857.104 -568 858 -567.105 858 -566V817C858 818.105 857.105 819 856 819H-188C-189.105 819 -190 818.105 -190 817V-566Z" fill="white"/>
<path d="M-188 -567H856V-569H-188V-567ZM857 -566V817H859V-566H857ZM856 818H-188V820H856V818ZM-189 817V-566H-191V817H-189ZM-188 818C-188.552 818 -189 817.552 -189 817H-191C-191 818.657 -189.657 820 -188 820V818ZM857 817C857 817.552 856.552 818 856 818V820C857.657 820 859 818.657 859 817H857ZM856 -567C856.552 -567 857 -566.552 857 -566H859C859 -567.657 857.657 -569 856 -569V-567ZM-188 -569C-189.657 -569 -191 -567.657 -191 -566H-189C-189 -566.552 -188.552 -567 -188 -567V-569Z" fill="black" fill-opacity="0.1"/>
<rect x="-109.5" y="-17.5" width="195" height="59" rx="4.5" stroke="#9747FF" stroke-dasharray="10 5"/>
<rect width="22" height="20" fill="white"/>
<path d="M19.8475 10.4357L11 19.2793L2.1525 10.4357C2.15199 10.4352 2.15148 10.4347 2.15097 10.4342C0.190257 8.43677 -0.277687 4.65139 2.15066 2.2055C3.62044 0.725088 5.28922 0.329464 6.80532 0.561789C8.34151 0.797193 9.73854 1.68164 10.6063 2.7899L11 3.29267L11.3937 2.7899C12.2615 1.68164 13.6585 0.797193 15.1947 0.561789C16.7108 0.329464 18.3796 0.725087 19.8493 2.2055C22.2777 4.65138 21.8097 8.43674 19.8491 10.4341C19.8485 10.4347 19.848 10.4352 19.8475 10.4357Z" fill="#FF6565" stroke="#FF6565"/>
</svg>
